C:\GBW_MyPrograms\PredSim\Subjects\Ines_test\Jullie_lengte\Jullie_lengte_v1.mot
version=1
nRows=15
nColumns=31
inDegrees=yes
endheader
                time	         pelvis_tilt	           pelvis_tx	           pelvis_ty	       hip_flexion_r	        knee_angle_r	       ankle_angle_r	       hip_flexion_l	        knee_angle_l	       ankle_angle_l	    lumbar_extension	          arm_flex_r	          arm_flex_l	hamstrings_r/activation	bifemsh_r/activation	glut_max_r/activation	iliopsoas_r/activation	rect_fem_r/activation	  vasti_r/activation	gastroc_r/activation	 soleus_r/activation	tib_ant_r/activation	hamstrings_l/activation	bifemsh_l/activation	glut_max_l/activation	iliopsoas_l/activation	rect_fem_l/activation	  vasti_l/activation	gastroc_l/activation	 soleus_l/activation	tib_ant_l/activation	
          0.38286932	         -0.87903702	          0.32543893	          0.68701907	         -5.55346925	        -22.96291114	        -19.40989910	         12.89602607	         -9.25868134	          4.12273425	         -3.16253861	         -4.66922368	         -4.66914043	          0.44927053	          0.58202792	          0.29693677	          0.72610330	          0.50727612	          0.24990498	          0.47933880	          0.35637806	          0.59993740	          0.40860450	          0.42714986	          0.61293433	          0.35292008	          0.58634646	          0.55036677	          0.09563781	          0.07392880	          0.77262153	
          0.39052671	         -0.90623632	          0.33349332	          0.68447411	         -5.39426544	        -24.46124423	        -19.23735987	         11.48407591	         -8.08911805	          4.70128658	         -2.89256370	         -5.01081183	         -5.01072708	          0.45434573	          0.57900309	          0.28379715	          0.71026538	          0.50702402	          0.24125812	          0.47317727	          0.33532452	          0.62461750	          0.41352937	          0.41917496	          0.64480480	          0.32850743	          0.59260794	          0.56376270	          0.08802477	          0.07090484	          0.78949706	
          0.39818410	         -0.93574400	          0.34158079	          0.68165295	         -5.16547986	        -26.07917537	        -19.03684044	          9.96972380	         -6.70915309	          4.82404166	         -2.61400165	         -5.35647337	         -5.35638589	          0.45294068	          0.57947192	          0.29130188	          0.71658860	          0.50850553	          0.22570367	          0.47058070	          0.31534979	          0.63719530	          0.41433724	          0.41605987	          0.64683655	          0.31851955	          0.58679900	          0.56996798	          0.08731177	          0.07761043	          0.81380707	
          0.40584148	         -0.96524975	          0.34956015	          0.67884522	         -4.86183970	        -27.78414272	        -18.83111337	          8.54650974	         -5.35432574	          4.28551765	         -2.35311570	         -5.67540413	         -5.67531531	          0.45219024	          0.58872224	          0.27671672	          0.72821494	          0.50857910	          0.20972365	          0.46679815	          0.29090731	          0.65940223	          0.40811954	          0.43140164	          0.63186525	          0.32409135	          0.58350101	          0.55562643	          0.10461045	          0.09108123	          0.79239150	
          0.41349887	         -0.98838547	          0.35730288	          0.67635461	         -4.46827177	        -29.55767032	        -18.56850518	          7.39784613	         -4.43697078	          3.61889160	         -2.13824661	         -5.93877408	         -5.93868387	          0.44637600	          0.59167215	          0.27934209	          0.72851424	          0.51822958	          0.19205999	          0.46724992	          0.27393592	          0.64769524	          0.40128189	          0.44219303	          0.61013598	          0.36488521	          0.58411469	          0.54738961	          0.14634324	          0.11044764	          0.78623718	
          0.42115626	         -1.00442211	          0.36476801	          0.67438731	         -3.98610291	        -31.30644072	        -18.12621053	          6.55591193	         -4.02707306	          2.91644118	         -1.97597573	         -6.13772806	         -6.13763695	          0.44052823	          0.59771357	          0.28677088	          0.74064289	          0.52581356	          0.17876018	          0.46256722	          0.25443765	          0.67410004	          0.38722151	          0.44507660	          0.58739042	          0.39997710	          0.59950775	          0.54843815	          0.19568817	          0.17461852	          0.71673333	
          0.42881364	         -1.01661947	          0.37196825	          0.67305375	         -3.40710411	        -32.93983853	        -17.59487057	          5.95456153	         -4.05061890	          2.56543827	         -1.85921173	         -6.27579031	         -6.27569932	          0.43331822	          0.60396526	          0.28492234	          0.74732573	          0.52862290	          0.16856963	          0.45818313	          0.23626948	          0.68125821	          0.37895000	          0.45167392	          0.58013033	          0.42626797	          0.60578509	          0.54605622	          0.20829036	          0.16216108	          0.73758046	
          0.43647103	         -1.02808757	          0.37892769	          0.67238733	         -2.69819871	        -34.50065432	        -16.98472127	          5.47614358	         -4.29451063	          2.53087016	         -1.77949004	         -6.35903136	         -6.35894031	          0.43264914	          0.61375396	          0.27733252	          0.74308581	          0.52789207	          0.16145314	          0.45397531	          0.21861662	          0.69165844	          0.37249300	          0.45636041	          0.57599476	          0.44550929	          0.60625125	          0.54496521	          0.23364408	          0.18871006	          0.70917607	
          0.44412842	         -1.03785410	          0.38568207	          0.67228932	         -1.83462904	        -36.07294155	        -16.33603193	          5.00594035	         -4.50814431	          2.39929117	         -1.73191375	         -6.39540070	         -6.39531094	          0.42485345	          0.61627636	          0.26857559	          0.73463637	          0.53668271	          0.15751813	          0.44918438	          0.20214965	          0.69494641	          0.36863670	          0.45965679	          0.56578776	          0.45195393	          0.61008364	          0.54191870	          0.25540022	          0.22225788	          0.68349267	
          0.45178580	         -1.04318426	          0.39226460	          0.67261221	         -0.81771192	        -37.70452302	        -15.65450137	          4.48066190	         -4.58214438	          2.11772502	         -1.71449966	         -6.39204886	         -6.39196017	          0.41375834	          0.61523460	          0.25931642	          0.72888678	          0.54865801	          0.15912136	          0.44274529	          0.18792447	          0.70355113	          0.36852409	          0.46064724	          0.55859707	          0.45604959	          0.61353765	          0.54108447	          0.27254947	          0.24941764	          0.66346040	
          0.45944319	         -1.04363392	          0.39870570	          0.67322400	          0.32773981	        -39.37551920	        -14.95283742	          3.87666087	         -4.48143992	          1.69720456	         -1.72309919	         -6.35595988	         -6.35587311	          0.39898769	          0.61466108	          0.25299397	          0.72527935	          0.56167965	          0.16073781	          0.43605670	          0.17433140	          0.70646419	          0.37193589	          0.46301234	          0.55296711	          0.45875783	          0.61302783	          0.53788633	          0.28597820	          0.27031758	          0.64854511	
          0.46710058	         -1.03902808	          0.40502522	          0.67402107	          1.57333386	        -41.04989397	        -14.23028244	          3.19796852	         -4.22141735	          1.17030639	         -1.75500868	         -6.29184134	         -6.29175682	          0.38150333	          0.61334913	          0.24743554	          0.72331708	          0.57607203	          0.16453286	          0.42820556	          0.16196097	          0.70709403	          0.37749008	          0.46585437	          0.54757959	          0.46077837	          0.61132954	          0.53406180	          0.29622943	          0.28647980	          0.63677178	
          0.47475796	         -1.02891636	          0.41123533	          0.67492591	          2.89251298	        -42.68670993	        -13.49351787	          2.46170392	         -3.83982098	          0.56810723	         -1.80909378	         -6.20263807	         -6.20255578	          0.36240414	          0.60982112	          0.24231019	          0.72236674	          0.59017575	          0.17201149	          0.41875961	          0.15044773	          0.70933469	          0.38311740	          0.46804411	          0.54309253	          0.46355993	          0.60947108	          0.53040012	          0.30357603	          0.29862794	          0.62704572	
          0.48241535	         -1.01311114	          0.41734791	          0.67588192	          4.25718356	        -44.23225696	        -12.74190165	          1.68631436	         -3.37540130	         -0.08244877	         -1.88388799	         -6.09122800	         -6.09114900	          0.34145739	          0.60499596	          0.23875981	          0.72195852	          0.60173820	          0.18277810	          0.40880972	          0.14029370	          0.70326233	          0.38789133	          0.47092121	          0.53901285	          0.46688013	          0.60695182	          0.52712903	          0.30805866	          0.30646679	          0.62027921	
          0.49007273	         -0.99190838	          0.42337620	          0.67684776	          5.63887300	        -45.62453329	        -11.98968025	          0.88780284	         -2.86174547	         -0.75432547	         -1.97707481	         -5.96081474	         -5.96073834	          0.32055626	          0.59947751	          0.23712118	          0.72160597	          0.61109098	          0.19819737	          0.39591603	          0.13021551	          0.70361809	          0.39013825	          0.47371618	          0.53611436	          0.47072992	          0.60654929	          0.52391592	          0.30989956	          0.31062535	          0.61977918	
